<svg xmlns="http://www.w3.org/2000/svg" viewBox="0 0 32 32" fill="none">
  <!-- Background rounded square, warna teal primary -->
  <rect width="32" height="32" rx="7" fill="oklch(0.38 0.1 175)"/>

  <!-- Menara kiri -->
  <rect x="4.5" y="15" width="3" height="11" rx="1" fill="white" fill-opacity="0.9"/>
  <path d="M4.5 15 Q6 12 7.5 15 Z" fill="white" fill-opacity="0.9"/>

  <!-- Menara kanan -->
  <rect x="24.5" y="15" width="3" height="11" rx="1" fill="white" fill-opacity="0.9"/>
  <path d="M24.5 15 Q26 12 27.5 15 Z" fill="white" fill-opacity="0.9"/>

  <!-- Badan masjid -->
  <rect x="8" y="21" width="16" height="5" rx="1" fill="white"/>

  <!-- Kubah kecil kiri -->
  <path d="M8 21 Q11.5 16 15 21 Z" fill="white" fill-opacity="0.8"/>

  <!-- Kubah kecil kanan -->
  <path d="M17 21 Q20.5 16 24 21 Z" fill="white" fill-opacity="0.8"/>

  <!-- Kubah utama tengah -->
  <path d="M10.5 21 Q16 12.5 21.5 21 Z" fill="white"/>

  <!-- Pintu lengkung -->
  <path d="M14.5 26 L14.5 22.5 Q16 21 17.5 22.5 L17.5 26 Z" fill="oklch(0.38 0.1 175)"/>

  <!-- Bulan sabit + bintang (amber/gold) -->
  <path d="M16 13 a1.8 1.8 0 0 1 0 3 a1.1 1.1 0 0 0 0-3z" fill="oklch(0.68 0.14 82)"/>
  <circle cx="18" cy="13.2" r="0.55" fill="oklch(0.68 0.14 82)"/>
</svg>
